<svg xmlns="http://www.w3.org/2000/svg" width="476.579" height="420.032" viewBox="0 0 476.579 420.032"><g transform="translate(-1130.948 -232.08)"><ellipse cx="128" cy="132" rx="128" ry="132" transform="matrix(0.966, 0.259, -0.259, 0.966, 1360.25, 232.08)" fill="#75b5ff"/><ellipse cx="103.5" cy="91" rx="103.5" ry="91" transform="matrix(0.966, 0.259, -0.259, 0.966, 1178.053, 422.738)" fill="#75b5ff"/><ellipse cx="96" cy="89.5" rx="96" ry="89.5" transform="translate(1240.448 331.758) rotate(19)" fill="#75b5ff"/><ellipse cx="85" cy="90.5" rx="85" ry="90.5" transform="translate(1431 448)" fill="#75b5ff"/><rect width="263" height="166" transform="translate(1261 463)" fill="#75b5ff"/></g><g transform="translate(-1130.948 -232.08)"><line y1="120" transform="translate(1378 473)" fill="none" stroke="#fff" stroke-linecap="round" stroke-width="45"/><line y1="43" x2="53" transform="translate(1325 473)" fill="none" stroke="#fff" stroke-linecap="round" stroke-width="45"/><line x1="53" y1="43" transform="translate(1378 473)" fill="none" stroke="#fff" stroke-linecap="round" stroke-width="45"/><rect width="44" height="38" transform="translate(1356 591)" fill="#fff"/></g><path d="M130.078,123.5a125.058,125.058,0,0,1,21.4-70.285,124.306,124.306,0,0,1,40.484,3.994c68.284,18.3,108.343,90.214,89.474,160.631a136.384,136.384,0,0,1-10.609,27.423A118.46,118.46,0,0,1,250.578,247C184.028,247,130.078,191.707,130.078,123.5Z" transform="translate(160.974 -24.08)" fill="#488bff"/></svg>