<svg xmlns="http://www.w3.org/2000/svg" width="338" height="227.624" viewBox="0 0 338 227.624"><g transform="translate(-9 -3)"><path d="M80.544,129.392,59.7,151.071H38.848L18,129.392V21H80.544V64.357L70.12,75.2,80.544,86.035V96.875L70.12,107.714l10.424,10.839Z" transform="translate(37.908 79.553)" fill="#ffa000"/><path d="M160.147,29.014A28.439,28.439,0,0,0,140.863,9.5C128.354,6.794,109.07,3,87.18,3S46.005,6.794,33.5,9.5A28.439,28.439,0,0,0,14.212,29.014,136.552,136.552,0,0,0,9,65.326a136.552,136.552,0,0,0,5.212,36.311A25.906,25.906,0,0,0,33.5,120.606a217.378,217.378,0,0,0,53.683,7.045c21.89,0,41.175-3.794,53.683-6.5,9.382-2.168,16.678-9.755,19.284-18.969a136.553,136.553,0,0,0,5.212-36.311A137.524,137.524,0,0,0,160.147,29.014ZM113.239,57.2H61.12A10.669,10.669,0,0,1,50.7,46.357V35.518c0-3.252,16.157-5.42,36.484-5.42s36.484,2.168,36.484,5.42V46.357A10.669,10.669,0,0,1,113.239,57.2Z" transform="translate(0 0)" fill="#ffa000"/><path d="M23,26H33.424V128.973H23Z" transform="translate(58.968 101.651)" fill="#d68600"/></g><g transform="translate(186 21.588)" fill="#eceff1" stroke="#cfd8dc" stroke-width="12"><rect width="152" height="85" rx="17" stroke="none"/><rect x="6" y="6" width="140" height="73" rx="11" fill="none"/></g><g transform="translate(186 121.588)" fill="#eceff1" stroke="#cfd8dc" stroke-width="12"><rect width="152" height="85" rx="17" stroke="none"/><rect x="6" y="6" width="140" height="73" rx="11" fill="none"/></g></svg>