<svg xmlns="http://www.w3.org/2000/svg" width="179.858" height="251.801" viewBox="0 0 179.858 251.801"><path d="M89.943,140.905,65.962,164.886H41.981L18,140.905V21H89.943V68.962L77.953,80.953,89.943,92.943v11.991L77.953,116.924l11.991,11.991Z" transform="translate(35.957 86.915)" fill="#ffa000"/><path d="M182.863,31.777c-3-10.791-11.991-18.585-22.182-21.583C146.292,7.2,124.109,3,98.929,3S51.566,7.2,37.178,10.194C26.986,13.192,17.993,20.986,15,31.777A145.7,145.7,0,0,0,9,71.946a145.7,145.7,0,0,0,6,40.168A29.282,29.282,0,0,0,37.178,133.1a259.4,259.4,0,0,0,61.751,7.794c25.18,0,47.363-4.2,61.751-7.194a30.272,30.272,0,0,0,22.182-20.983,145.7,145.7,0,0,0,6-40.168A146.728,146.728,0,0,0,182.863,31.777ZM128.905,62.953H68.953A12.026,12.026,0,0,1,56.962,50.962V38.972c0-3.6,18.585-6,41.967-6s41.967,2.4,41.967,6V50.962A12.026,12.026,0,0,1,128.905,62.953Z" transform="translate(-9 -3)" fill="#ffa000"/><path d="M23,26H34.991V139.91H23Z" transform="translate(60.934 111.891)" fill="#d68600"/></svg>