<svg xmlns="http://www.w3.org/2000/svg" width="370" height="512.042" viewBox="0 0 370 512.042"><path d="M30,0H240.683L370,128.161V482a30,30,0,0,1-30,30H30A30,30,0,0,1,0,482V30A30,30,0,0,1,30,0Z" fill="#c9d5e3"/><g transform="translate(-586 -102)"><path d="M30,0H241l30,30v95.158l77.261,76.359C348.261,218.085,257.569,271,241,271H30A30,30,0,0,1,0,241V30A30,30,0,0,1,30,0Z" transform="translate(586 102)" fill="#e2e7f0"/><path d="M18,0H335a18.23,18.23,0,0,1,18,18.452v263.46a18.23,18.23,0,0,1-18,18.452H47.474s-6.372,1.359-9.684,5.284S34.4,316.8,34.4,316.8c-5.259,0-16.224.68-24.78-7.858S0,286.712,0,281.912V18.452A18.23,18.23,0,0,1,18,0Z" transform="translate(586 297.232)" fill="#e2e7f0"/></g><path d="M0,0,129,128H32A32,32,0,0,1,0,96Z" transform="translate(241)" fill="#9dacba"/><line x2="129" transform="translate(120.5 168.5)" fill="none" stroke="#9dacba" stroke-linecap="round" stroke-width="14"/><line x2="224" transform="translate(72.5 238.5)" fill="none" stroke="#9dacba" stroke-linecap="round" stroke-width="14"/><line x2="224" transform="translate(72.5 288.5)" fill="none" stroke="#9dacba" stroke-linecap="round" stroke-width="14"/><line x2="224" transform="translate(72.5 338.5)" fill="none" stroke="#9dacba" stroke-linecap="round" stroke-width="14"/><line x2="224" transform="translate(72.5 388.5)" fill="none" stroke="#9dacba" stroke-linecap="round" stroke-width="14"/><line x2="131" transform="translate(72.5 438.5)" fill="none" stroke="#9dacba" stroke-linecap="round" stroke-width="14"/></svg>